<svg xmlns="http://www.w3.org/2000/svg" width="25.556" height="25.957" viewBox="0 0 25.556 25.957">
  <g id="card-membership" transform="translate(-14.25 0.75)">
    <path id="Path_252" data-name="Path 252" d="M21.634,1.32a2.338,2.338,0,0,1,1.718.7,2.273,2.273,0,0,1,.7,1.662V16.926a2.4,2.4,0,0,1-2.423,2.423H16.845V25.32L12,22.954,7.211,25.32V19.348H2.423a2.338,2.338,0,0,1-1.718-.7A2.338,2.338,0,0,1,0,16.926V3.686A2.273,2.273,0,0,1,.7,2.024a2.338,2.338,0,0,1,1.718-.7Zm0,15.606V14.5H2.423v2.423Zm0-6.028V3.686H2.423V10.9Z" transform="translate(15 -1.32)" fill="none" stroke="#f8ac1d" stroke-width="1.5"/>
  </g>
</svg>
