<svg id="order-details" xmlns="http://www.w3.org/2000/svg" width="20.235" height="25.754" viewBox="0 0 20.235 25.754">
  <path id="Path_249" data-name="Path 249" d="M68.278,126H62.759A2.759,2.759,0,0,0,60,128.759v1.84h1.84v-1.84a.92.92,0,0,1,.92-.92h5.519a.92.92,0,0,1,.92.92v1.84h1.84v-1.84A2.759,2.759,0,0,0,68.278,126Z" transform="translate(-55.401 -108.524)" fill="#f8ac1d"/>
  <path id="Path_250" data-name="Path 250" d="M75.679,79.358A3.679,3.679,0,1,0,72,75.679,3.679,3.679,0,0,0,75.679,79.358Zm0-5.519a1.84,1.84,0,1,1-1.84,1.84A1.84,1.84,0,0,1,75.679,73.84Z" transform="translate(-65.561 -62.802)" fill="#f8ac1d"/>
  <path id="Path_251" data-name="Path 251" d="M48.4,14.759H45.636v-.92A1.84,1.84,0,0,0,43.8,12H36.439a1.84,1.84,0,0,0-1.84,1.84v.92H31.84A1.84,1.84,0,0,0,30,16.6V35.915a1.84,1.84,0,0,0,1.84,1.84H48.4a1.84,1.84,0,0,0,1.84-1.84V16.6A1.84,1.84,0,0,0,48.4,14.759Zm-11.957-.92H43.8v3.679H36.439ZM48.4,35.915H31.84V16.6H34.6v2.759H45.636V16.6H48.4Z" transform="translate(-30 -12)" fill="#f8ac1d"/>
</svg>
