<svg id="drivers-license-o" xmlns="http://www.w3.org/2000/svg" width="24.416" height="18.312" viewBox="0 0 24.416 18.312">
  <path id="Path_253" data-name="Path 253" d="M10.682,12.923a1.7,1.7,0,0,1-.376,1.115,1.129,1.129,0,0,1-.9.459H4.328a1.129,1.129,0,0,1-.9-.459,1.7,1.7,0,0,1-.376-1.115,7.536,7.536,0,0,1,.089-1.2,5.225,5.225,0,0,1,.292-1.073,1.8,1.8,0,0,1,.608-.817,1.585,1.585,0,0,1,.966-.3,2.531,2.531,0,0,0,1.86.763,2.531,2.531,0,0,0,1.86-.763,1.585,1.585,0,0,1,.966.3,1.8,1.8,0,0,1,.608.817,5.225,5.225,0,0,1,.292,1.073A7.536,7.536,0,0,1,10.682,12.923ZM9.156,7.63A2.279,2.279,0,0,1,6.867,9.919,2.279,2.279,0,0,1,4.578,7.63,2.279,2.279,0,0,1,6.867,5.341,2.279,2.279,0,0,1,9.156,7.63Zm12.208,4.959v.763a.367.367,0,0,1-.381.381H12.589a.367.367,0,0,1-.381-.381v-.763a.367.367,0,0,1,.381-.381h8.393a.367.367,0,0,1,.381.381ZM16.786,9.537V10.3a.367.367,0,0,1-.381.381H12.589a.367.367,0,0,1-.381-.381V9.537a.367.367,0,0,1,.381-.381H16.4a.367.367,0,0,1,.381.381Zm4.578,0V10.3a.367.367,0,0,1-.381.381H18.693a.367.367,0,0,1-.381-.381V9.537a.367.367,0,0,1,.381-.381h2.289a.367.367,0,0,1,.381.381Zm0-3.052v.763a.367.367,0,0,1-.381.381H12.589a.367.367,0,0,1-.381-.381V6.485a.367.367,0,0,1,.381-.381h8.393a.367.367,0,0,1,.381.381ZM22.89,16.4V3.052H1.526V16.4a.387.387,0,0,0,.381.381h20.6a.387.387,0,0,0,.381-.381Zm1.526-14.5V16.4a1.913,1.913,0,0,1-1.907,1.907H1.907a1.837,1.837,0,0,1-1.347-.56A1.837,1.837,0,0,1,0,16.4V1.907A1.837,1.837,0,0,1,.56.56,1.837,1.837,0,0,1,1.907,0h20.6a1.837,1.837,0,0,1,1.347.56A1.837,1.837,0,0,1,24.416,1.907Z" transform="translate(0 0)" fill="#f8ac1d"/>
</svg>
