<svg id="expand-card-line" xmlns="http://www.w3.org/2000/svg" width="24.292" height="18.219" viewBox="0 0 24.292 18.219">
  <path id="Path_254" data-name="Path 254" d="M34.193,31.98H11.419a.759.759,0,0,0-.759.759v16.7a.759.759,0,0,0,.759.759H34.193a.759.759,0,0,0,.759-.759v-16.7A.759.759,0,0,0,34.193,31.98Zm-.759,16.7H12.178V33.5H33.434Z" transform="translate(-10.66 -31.98)" fill="#f8ac1d"/>
  <path id="Path_255" data-name="Path 255" d="M65.482,53.543l3.431-3.431,3.431,3.431a.585.585,0,0,0,.425.182.615.615,0,0,0,.433-1.04L68.913,48.4l-4.289,4.289a.607.607,0,1,0,.858.858Z" transform="translate(-56.767 -46.058)" fill="#f8ac1d"/>
  <path id="Path_256" data-name="Path 256" d="M65.482,85.523l3.431-3.431,3.431,3.431a.584.584,0,0,0,.425.182.615.615,0,0,0,.433-1.04l-4.289-4.289-4.289,4.289a.607.607,0,1,0,.858.858Z" transform="translate(-56.767 -73.484)" fill="#f8ac1d"/>
</svg>
