<svg xmlns="http://www.w3.org/2000/svg" width="10.493" height="13.683" viewBox="0 0 10.493 13.683">
  <path id="da086273b974cb595139babd4da17772" d="M16.242,8.209l-.22,6.67A2.2,2.2,0,0,1,13.818,17H9.63a2.2,2.2,0,0,1-2.2-2.123l-.22-6.672a.551.551,0,0,1,1.1-.036l.22,6.672A1.1,1.1,0,0,0,9.63,15.9h4.187a1.1,1.1,0,0,0,1.1-1.062l.22-6.67a.551.551,0,1,1,1.1.036Zm.729-2.22a.551.551,0,0,1-.551.551H7.029a.551.551,0,1,1,0-1.1H8.737a.7.7,0,0,0,.7-.632,1.648,1.648,0,0,1,1.644-1.484h1.284A1.648,1.648,0,0,1,14.01,4.806a.7.7,0,0,0,.7.632h1.708a.551.551,0,0,1,.551.551Zm-6.576-.551h2.66a1.818,1.818,0,0,1-.14-.52.551.551,0,0,0-.548-.5H11.083a.551.551,0,0,0-.548.5,1.818,1.818,0,0,1-.141.52Zm.555,8.347V9.095a.551.551,0,0,0-1.1,0v4.693a.551.551,0,0,0,1.1,0Zm2.652,0V9.095a.551.551,0,0,0-1.1,0v4.693a.551.551,0,1,0,1.1,0Z" transform="translate(-6.478 -3.322)" fill="#d6d3cd"/>
</svg>
